IKResults
version=1
nRows=6
nColumns=63
inDegrees=yes

Units are S.I. units (second, meters, Newtons, ...)
If the header above contains a line with 'inDegrees', this indicates whether rotational values are in degrees (yes) or radians (no).

endheader
time	pelvis_tilt	pelvis_list	pelvis_rotation	pelvis_tx	pelvis_ty	pelvis_tz	hip_flexion_r	hip_adduction_r	hip_rotation_r	knee_angle_r	knee_angle_r_beta	ankle_angle_r	subtalar_angle_r	mtp_angle_r	hip_flexion_l	hip_adduction_l	hip_rotation_l	knee_angle_l	knee_angle_l_beta	ankle_angle_l	subtalar_angle_l	mtp_angle_l	L5_S1_Flex_Ext	L5_S1_Lat_Bending	L5_S1_axial_rotation	L4_L5_Flex_Ext	L4_L5_Lat_Bending	L4_L5_axial_rotation	L3_L4_Flex_Ext	L3_L4_Lat_Bending	L3_L4_axial_rotation	L2_L3_Flex_Ext	L2_L3_Lat_Bending	L2_L3_axial_rotation	L1_L2_Flex_Ext	L1_L2_Lat_Bending	L1_L2_axial_rotation	L1_T12_Flex_Ext	L1_T12_Lat_Bending	L1_T12_axial_rotation	Abs_r3	Abs_r2	Abs_r1	Abs_t1	Abs_t2	neck_flexion	neck_bending	neck_rotation	arm_flex_r	arm_add_r	arm_rot_r	elbow_flex_r	pro_sup_r	wrist_flex_r	wrist_dev_r	arm_flex_l	arm_add_l	arm_rot_l	elbow_flex_l	pro_sup_l	wrist_flex_l	wrist_dev_l
      6.03333333	     -3.27971562	     -1.84094056	      0.49886582	      0.25398105	      0.94554487	     -0.26431188	     -1.98621604	     -0.10742362	     -1.91594401	      0.63038478	      0.01100229	     13.72431616	    -10.56983186	      0.00000000	     -1.51343102	     -9.15331109	    -19.77754150	      7.52485530	      0.13133350	     18.50223200	      4.73070920	      0.00000000	      0.59183493	      0.17253264	      0.12299342	      1.09909665	      0.22946841	      0.13068051	      0.97232561	      0.41949587	      0.13068051	      0.67640814	      0.41949587	      0.10761925	      0.54957792	      0.35182856	      0.09993216	      0.33817448	      0.26725306	      0.09224507	      4.22741772	      1.95172375	      0.68405253	      0.00000000	      0.00000000	     25.22296433	     -1.20553359	     -1.10036602	     -6.24830219	    -11.31040854	      4.10106065	     23.80416705	     89.99559364	      0.00000000	      0.00000000	     -7.97468744	    -10.41438362	     -2.44824486	     29.25368617	     89.99559364	      0.00000000	      0.00000000
      6.06666667	     -3.35216247	     -1.85274904	      0.54264708	      0.25539579	      0.94539658	     -0.26492037	     -2.00327883	     -0.14317830	     -1.92816045	      0.67007021	      0.01169493	     13.69003120	    -10.56090065	      0.00000000	     -1.52107172	     -9.12605260	    -19.77440865	      7.51753507	      0.13120574	     18.50421879	      4.73302538	      0.00000000	      0.60795881	      0.17890046	      0.13029602	      1.12904031	      0.23793761	      0.13843952	      0.99881553	      0.43497857	      0.13843952	      0.69483613	      0.43497857	      0.11400901	      0.56455055	      0.36481381	      0.10586551	      0.34738767	      0.27711681	      0.09772201	      4.34258901	      2.02375776	      0.72466735	      0.00000000	      0.00000000	     25.24901758	     -1.19788499	     -1.11123614	     -6.08295134	    -11.19714478	      4.11575755	     23.85839830	     89.99559364	      0.00000000	      0.00000000	     -7.94555623	    -10.43233660	     -2.44841982	     29.23739971	     89.99559364	      0.00000000	      0.00000000
      6.10000000	     -3.65304668	     -1.78908242	      0.43624369	      0.25663913	      0.94506466	     -0.26528425	     -1.76247090	     -0.25224185	     -2.03976747	      0.64752393	      0.01130142	     13.30005371	    -10.42789376	      0.00000000	     -1.43329354	     -8.96125162	    -19.84899649	      7.23847178	      0.12633517	     18.42902112	      4.73237535	      0.00000000	      0.65285209	      0.17250408	      0.09607741	      1.21241161	      0.22943042	      0.10208225	      1.07257070	      0.41942641	      0.10208225	      0.74614465	      0.41942641	      0.08406773	      0.60623845	      0.35177031	      0.07806290	      0.37303968	      0.26720882	      0.07205806	      4.66325718	      1.95140063	      0.53435374	      0.00000000	      0.00000000	     25.78244633	     -1.10148794	     -1.28189193	     -5.71326088	    -10.93065019	      4.21832919	     23.93630526	     89.99559364	      0.00000000	      0.00000000	     -8.02752205	    -10.53197714	     -2.39547625	     28.61590909	     89.99559364	      0.00000000	      0.00000000
      6.13333333	     -3.86837025	     -1.77885758	      0.35428370	      0.25821745	      0.94476555	     -0.26581789	     -1.64371221	     -0.30013270	     -2.11455355	      0.65239682	      0.01138647	     13.24298561	    -10.36702451	      0.00000000	     -1.41097438	     -8.87256886	    -19.88412192	      7.07186806	      0.12342738	     18.31381891	      4.74621907	      0.00000000	      0.69431168	      0.17275164	      0.07591472	      1.28940622	      0.22975968	      0.08065939	      1.14068466	      0.42002834	      0.08065939	      0.79352882	      0.42002834	      0.06642538	      0.64473782	      0.35227514	      0.06168071	      0.39672969	      0.26759229	      0.05693604	      4.95939888	      1.95420110	      0.42221491	      0.00000000	      0.00000000	     26.03987363	     -1.02589948	     -1.41918980	     -5.46556349	    -10.74350397	      4.31135136	     24.01557921	     89.99559364	      0.00000000	      0.00000000	     -8.13294707	    -10.64145990	     -2.36040639	     28.07193336	     89.99559364	      0.00000000	      0.00000000
      6.16666667	     -4.97391409	     -1.71116069	      0.28109751	      0.26054045	      0.94342291	     -0.26673885	     -0.59372651	     -0.46303551	     -3.17960924	      0.71239182	      0.01243358	     13.59373800	     -8.71915119	      0.00000000	     -0.55355747	     -8.65903463	    -20.06455468	      6.73326221	      0.11751760	     18.05870151	      4.91334752	      0.00000000	      0.91334156	      0.16478691	      0.07462154	      1.69616660	      0.21916659	      0.07928539	      1.50052884	      0.40066290	      0.07928539	      1.04385806	      0.40066290	      0.06529385	      0.84812897	      0.33603347	      0.06063000	      0.52188337	      0.25525493	      0.05596616	      6.52390740	      1.86410252	      0.41502263	      0.00000000	      0.00000000	     25.81759772	     -0.90138877	     -1.88301095	     -5.69658345	    -10.95230939	      6.54737941	     24.15160799	     89.99559364	      0.00000000	      0.00000000	     -8.32350166	    -10.93145013	     -0.92155023	     26.80007338	     89.99559364	      0.00000000	      0.00000000
      6.20000000	     -5.06431376	     -1.74772100	      0.15909578	      0.26198525	      0.94325211	     -0.26740407	     -0.58540610	     -0.47323605	     -3.16918563	      0.73171408	      0.01277082	     13.57471483	     -8.66844970	      0.00000000	     -0.64050026	     -8.62370340	    -20.09849681	      6.64573607	      0.11598998	     18.06406470	      4.88522895	      0.00000000	      0.93353453	      0.17123201	      0.04091837	      1.73366698	      0.22773858	      0.04347577	      1.53370388	      0.41633352	      0.04347577	      1.06693662	      0.41633352	      0.03580357	      0.86688017	      0.34917632	      0.03324618	      0.53342163	      0.26523839	      0.03068878	      6.66814381	      1.93701080	      0.22757570	      0.00000000	      0.00000000	     25.99322066	     -0.86399419	     -1.94526821	     -5.45110383	    -10.80328587	      6.58045239	     24.28151286	     89.99559364	      0.00000000	      0.00000000	     -8.57228019	    -11.03663492	     -0.92531157	     26.39862281	     89.99559364	      0.00000000	      0.00000000
